/* XPM */
static char *_6x16[] = {
/* columns rows colors chars-per-pixel */
"16 16 33 1 ",
"  c #CF5545",
". c #D05545",
"X c #D15545",
"o c #D15646",
"O c #D25646",
"+ c #D35646",
"@ c #D65848",
"# c #D65948",
"$ c #D75948",
"% c #D85949",
"& c #D85A49",
"* c #DB5B4B",
"= c #DC5C4B",
"- c #E15E4E",
"; c #E15F4E",
": c #E3604F",
"> c #E4604F",
", c #E4614F",
"< c #E56150",
"1 c #E66250",
"2 c #E76251",
"3 c #E76351",
"4 c #E86351",
"5 c #E86352",
"6 c #E96352",
"7 c #E96452",
"8 c #ED6654",
"9 c #EE6654",
"0 c #EF6755",
"q c #F06856",
"w c #F16956",
"e c #F26956",
"r c None",
/* pixels */
"rrrrrq00000rrrrr",
"rrr00:=$$=200rrr",
"rr00$X   XX$20rr",
"r02 XOOOXXXX 00r",
"r0$XOOOO   @ @0r",
"q:XX :2X@0=XX ;q",
"0= XO2w:202XXX=0",
"0$XXOO2q02@XXX$0",
"0$ @XX2002OOOX=0",
"0= X@2w22q2OO $0",
"02 X =2X 2:OX 2q",
"r0$ @@X@ X X @0r",
"r00  XXXXXXXX20r",
"rr02$ XXXXX@00rr",
"rrr00:=@==;00rrr",
"rrrrr00000wrrrrr"
};
